<?xml version="1.0" encoding="UTF-8"?>
<svg version="1.1" xmlns="http://www.w3.org/2000/svg" width="793" height="320">
    <path d="M0 0 C23.07727776 -0.619328 46.95913852 2.64477675 68.07421875 12.16015625 C70.74756049 13.21285239 73.42777475 14.24443725 76.11328125 15.265625 C78.07421875 16.16015625 78.07421875 16.16015625 80.07421875 18.16015625 C80.32031441 20.49897957 80.32031441 20.49897957 80.31472778 23.48782349 C80.31885178 25.18319244 80.31885178 25.18319244 80.32305908 26.91281128 C80.31586853 28.15861969 80.30867798 29.4044281 80.30126953 30.68798828 C80.30156158 31.99525879 80.30185364 33.3025293 80.30215454 34.64941406 C80.30272976 38.24014482 80.29094815 41.83074271 80.27700663 45.42144251 C80.26452744 49.17173246 80.26333099 52.92202525 80.26095581 56.67233276 C80.25473275 63.77673867 80.23831081 70.88108322 80.21825683 77.98546207 C80.19592348 86.07240763 80.18491086 94.15935607 80.17486596 102.24632478 C80.15394526 118.88430455 80.1187533 135.52222258 80.07421875 152.16015625 C81.66136378 151.70339397 83.247015 151.24143925 84.83203125 150.77734375 C85.7152002 150.52065918 86.59836914 150.26397461 87.50830078 149.99951172 C90.47662789 149.02852137 93.10590946 147.73009244 95.859375 146.27734375 C98.65485602 144.86727749 101.50529474 143.63467498 104.38671875 142.41015625 C105.39347656 141.9821875 106.40023438 141.55421875 107.4375 141.11328125 C110.07421875 140.16015625 110.07421875 140.16015625 113.07421875 140.16015625 C113.20473633 140.95373535 113.33525391 141.74731445 113.46972656 142.56494141 C114.08601814 146.305324 114.70466441 150.04531309 115.32421875 153.78515625 C115.4361557 154.46199463 115.54809265 155.13883301 115.66342163 155.83618164 C117.29534185 165.68987966 119.00118153 175.52503098 120.90527344 185.33056641 C121.72663013 189.677268 122.26923699 193.71085131 122.07421875 198.16015625 C121.41421875 198.16015625 120.75421875 198.16015625 120.07421875 198.16015625 C119.82027344 198.72089844 119.56632812 199.28164063 119.3046875 199.859375 C107.50568408 221.92163853 79.63557889 237.43629914 56.6015625 244.96875 C53.06073839 245.92841261 49.7384422 246.38917022 46.07421875 246.16015625 C46.07421875 246.82015625 46.07421875 247.48015625 46.07421875 248.16015625 C2.03663352 255.16148058 -41.0349298 253.74047732 -79.30859375 228.10546875 C-89.29334973 220.68396356 -99.15818292 212.68753143 -105.92578125 202.16015625 C-106.58578125 201.83015625 -107.24578125 201.50015625 -107.92578125 201.16015625 C-107.92578125 216.67015625 -107.92578125 232.18015625 -107.92578125 248.16015625 C-181.84578125 248.16015625 -255.76578125 248.16015625 -331.92578125 248.16015625 C-331.92578125 195.16015625 -331.92578125 195.16015625 -319.92578125 182.16015625 C-316.48035986 177.98118749 -316.48035986 177.98118749 -313.0703125 173.7734375 C-310.92703169 171.16168002 -308.70197795 168.65650323 -306.42578125 166.16015625 C-303.34924453 162.78554677 -300.41459908 159.34199761 -297.55078125 155.78515625 C-293.8687659 151.23074702 -289.99677768 146.9226806 -286.01000977 142.63891602 C-283.03891375 139.42752218 -280.22631537 136.13405862 -277.48828125 132.72265625 C-273.64532646 127.94474287 -269.55746796 123.47020641 -265.36962891 118.99853516 C-261.44993593 114.78932649 -257.81311837 110.40271662 -254.2109375 105.91796875 C-250.78230533 101.78016651 -247.12685212 97.86344518 -243.4765625 93.921875 C-236.05139297 85.8826792 -229.04618561 77.46729467 -221.92578125 69.16015625 C-257.56578125 68.83015625 -293.20578125 68.50015625 -329.92578125 68.16015625 C-329.92578125 47.04015625 -329.92578125 25.92015625 -329.92578125 4.16015625 C-258.31578125 4.16015625 -186.70578125 4.16015625 -112.92578125 4.16015625 C-112.92578125 55.16015625 -112.92578125 55.16015625 -123.92578125 67.16015625 C-126.56589931 70.16354877 -126.56589931 70.16354877 -129.19140625 73.1796875 C-131.19842663 75.4714878 -133.24980976 77.72012377 -135.30078125 79.97265625 C-139.2494957 84.34301309 -142.97205335 88.86318704 -146.67578125 93.44140625 C-149.57289493 96.94208528 -152.62648559 100.28355393 -155.6875 103.640625 C-157.95425283 106.19220542 -160.10118212 108.81187157 -162.23828125 111.47265625 C-166.12769283 116.28520915 -170.25321375 120.80614145 -174.47924805 125.3190918 C-178.42368564 129.55510483 -182.09058826 133.96650433 -185.71484375 138.48046875 C-188.82823922 142.25394806 -192.1521164 145.8198372 -195.46484375 149.41796875 C-197.8361802 152.06031508 -200.07831122 154.76709792 -202.30078125 157.53515625 C-206.25587502 162.44201056 -210.44859735 167.07061529 -214.76513672 171.65771484 C-220.31474551 177.29388621 -220.31474551 177.29388621 -223.92578125 184.16015625 C-188.94578125 184.16015625 -153.96578125 184.16015625 -117.92578125 184.16015625 C-117.92578125 183.17015625 -117.92578125 182.18015625 -117.92578125 181.16015625 C-118.58578125 181.16015625 -119.24578125 181.16015625 -119.92578125 181.16015625 C-120.33570313 179.91878906 -120.745625 178.67742187 -121.16796875 177.3984375 C-121.71215914 175.75648375 -122.25643444 174.11455815 -122.80078125 172.47265625 C-123.07019531 171.65603516 -123.33960938 170.83941406 -123.6171875 169.99804688 C-125.20183342 165.22096113 -125.20183342 165.22096113 -127.0234375 160.53125 C-135.81626783 137.42628026 -132.68851453 110.15344939 -125.92578125 87.16015625 C-125.63960937 86.14179688 -125.3534375 85.1234375 -125.05859375 84.07421875 C-117.69194489 59.75775834 -99.59787581 36.3386772 -77.92578125 23.16015625 C-76.80589232 22.43444655 -75.68750344 21.70641879 -74.5703125 20.9765625 C-65.51408788 15.16015625 -65.51408788 15.16015625 -60.92578125 15.16015625 C-60.92578125 14.50015625 -60.92578125 13.84015625 -60.92578125 13.16015625 C-31.71487073 2.86352824 -31.71487073 2.86352824 -16.92578125 1.16015625 C-15.84167969 1.03253906 -14.75757813 0.90492187 -13.640625 0.7734375 C-9.09783321 0.33998649 -4.55854101 0.18597033 0 0 Z "
          fill="#FCFCFC" transform="translate(331.92578125,56.83984375)"/>
    <path d="M0 0 C1.18682625 0.00539291 1.18682625 0.00539291 2.39762878 0.01089478 C3.22682831 0.01074875 4.05602783 0.01060272 4.91035461 0.01045227 C7.664521 0.01115166 10.41862063 0.01894523 13.17277527 0.02676392 C15.07706668 0.028628 16.98135857 0.03005195 18.88565063 0.03105164 C23.90804865 0.03487754 28.93041794 0.04470843 33.95280457 0.05575562 C39.97332414 0.06776242 45.9938533 0.07237163 52.01438141 0.07820892 C61.17006395 0.08792016 70.32568341 0.1070762 79.48136902 0.12442017 C79.48136902 21.24442017 79.48136902 42.36442017 79.48136902 64.12442017 C97.96136902 64.12442017 116.44136902 64.12442017 135.48136902 64.12442017 C135.48136902 85.24442017 135.48136902 106.36442017 135.48136902 128.12442017 C117.00136902 128.12442017 98.52136902 128.12442017 79.48136902 128.12442017 C79.54308091 144.12752461 79.54308091 144.12752461 79.64152527 160.13027954 C79.68983903 166.65917216 79.73389174 173.18789533 79.75236511 179.71694946 C79.76753221 184.98208579 79.80197919 190.24677826 79.84967804 195.51171684 C79.8644912 197.51826553 79.87240999 199.5248776 79.87325287 201.53148079 C79.87562444 204.34687495 79.90271958 207.16104438 79.93547058 209.97622681 C79.93044022 210.80197708 79.92540985 211.62772736 79.92022705 212.47850037 C80.05046421 219.73614635 82.78828698 224.46464407 87.48136902 229.99942017 C87.95574402 230.57434204 88.43011902 231.14926392 88.91886902 231.74160767 C90.73513897 233.34900657 92.11496307 233.72661917 94.48136902 234.12442017 C94.48136902 234.78442017 94.48136902 235.44442017 94.48136902 236.12442017 C98.16859829 236.2414322 101.85534444 236.31194062 105.54386902 236.37442017 C107.10137878 236.4246936 107.10137878 236.4246936 108.69035339 236.47598267 C115.35448798 236.5606066 118.94360707 235.78265563 124.48136902 232.12442017 C125.80136902 232.12442017 127.12136902 232.12442017 128.48136902 232.12442017 C128.48136902 231.46442017 128.48136902 230.80442017 128.48136902 230.12442017 C130.33781433 230.3019104 130.33781433 230.3019104 132.48136902 231.12442017 C133.72648621 233.33560181 133.72648621 233.33560181 134.77824402 236.28457642 C135.1759198 237.37754028 135.57359558 238.47050415 135.98332214 239.59658813 C136.60110535 241.37380249 136.60110535 241.37380249 137.23136902 243.18692017 C137.88008972 244.99507202 137.88008972 244.99507202 138.54191589 246.8397522 C142.43177295 257.75962625 146.11286456 268.75245976 149.67863464 279.78213501 C150.25212776 281.45552096 150.89458706 283.10590476 151.58097839 284.73623657 C152.48136902 287.12442017 152.48136902 287.12442017 152.48136902 290.12442017 C145.66994821 293.83311659 139.04587117 296.38494565 131.54386902 298.31192017 C130.6318573 298.55877563 129.71984558 298.8056311 128.78019714 299.05996704 C126.02246847 299.79081386 123.25827761 300.47043359 120.48136902 301.12442017 C119.22562073 301.42569824 119.22562073 301.42569824 117.94450378 301.73306274 C110.19328601 303.37806052 102.46364906 303.46292004 94.576828 303.44009399 C92.31469257 303.43694912 90.05388936 303.46042127 87.79191589 303.48574829 C74.58907603 303.54404155 61.89140107 301.74847655 49.35636902 297.43692017 C48.61193542 297.18273315 47.86750183 296.92854614 47.10050964 296.66665649 C26.2205201 289.20728469 11.6811814 274.75004976 2.09172058 254.96890259 C-6.3681431 236.77846388 -5.82522044 216.1816299 -5.71394348 196.48379517 C-5.71019981 194.49455917 -5.70735927 192.50532129 -5.70536804 190.51608276 C-5.697838 185.35418339 -5.67828487 180.19240184 -5.65596008 175.0305481 C-5.63526859 169.73372999 -5.62631721 164.43689229 -5.61628723 159.14004517 C-5.59502566 148.80145256 -5.56102326 138.46294627 -5.51863098 128.12442017 C-10.90832278 128.21859334 -16.29759875 128.32482266 -21.68684387 128.44180298 C-23.51685738 128.47987784 -25.34694026 128.51476654 -27.17707825 128.54629517 C-29.82112783 128.5924165 -32.46470856 128.65032847 -35.10847473 128.71035767 C-35.91510056 128.72190887 -36.72172638 128.73346008 -37.55279541 128.74536133 C-43.07627458 128.88604286 -48.1712287 129.7436194 -53.51863098 131.12442017 C-53.51863098 131.78442017 -53.51863098 132.44442017 -53.51863098 133.12442017 C-54.50863098 133.49567017 -55.49863098 133.86692017 -56.51863098 134.24942017 C-64.93856587 137.91616601 -72.67561421 144.31111025 -76.27351379 152.9335022 C-80.64762804 164.91052543 -82.8125502 176.70912998 -82.83747864 189.45889282 C-82.84752426 190.6502887 -82.85756989 191.84168457 -82.86791992 193.06918335 C-82.89333569 196.30403358 -82.91029722 199.53878949 -82.92334795 202.77370882 C-82.93908462 206.1663274 -82.96584063 209.55885961 -82.99137878 212.95141602 C-83.03798153 219.3613403 -83.07481455 225.77128117 -83.10805166 232.18128717 C-83.15017403 240.20275599 -83.2054905 248.22412718 -83.26081848 256.24551392 C-83.35934696 270.53842879 -83.43807091 284.83136766 -83.51863098 299.12442017 C-110.24863098 299.12442017 -136.97863098 299.12442017 -164.51863098 299.12442017 C-163.9053519 292.99162935 -163.26992838 287.08026687 -162.15534973 281.05410767 C-162.02440414 280.32964447 -161.89345856 279.60518127 -161.75854492 278.85876465 C-161.35057455 276.61296292 -160.93599104 274.36849461 -160.51863098 272.12442017 C-160.39022827 271.43368408 -160.26182556 270.742948 -160.12953186 270.03128052 C-159.34906505 265.84891643 -158.5560826 261.66899111 -157.75862122 257.48983765 C-155.65437634 246.46177985 -153.5683321 235.43055305 -151.53034973 224.39004517 C-150.859872 220.75981924 -150.18937892 217.12959618 -149.51863098 213.49942017 C-149.35202972 212.59769073 -149.18542847 211.6959613 -149.01377869 210.76690674 C-146.57156479 197.56932283 -144.0001338 184.40319319 -141.3238678 171.2512207 C-139.31324777 161.35615998 -137.52284053 151.44741986 -135.94441223 141.47329712 C-134.28922393 131.24981067 -131.94760507 121.1881696 -129.51863098 111.12442017 C-138.0957442 114.35906565 -146.53335815 117.70930594 -154.78425598 121.70645142 C-156.50902161 122.53209595 -156.50902161 122.53209595 -158.26863098 123.37442017 C-159.86964661 124.15559204 -159.86964661 124.15559204 -161.50300598 124.95254517 C-164.51863098 126.12442017 -164.51863098 126.12442017 -169.51863098 126.12442017 C-169.51863098 102.69442017 -169.51863098 79.26442017 -169.51863098 55.12442017 C-142.45863098 55.12442017 -115.39863098 55.12442017 -87.51863098 55.12442017 C-87.51863098 64.03442017 -87.51863098 72.94442017 -87.51863098 82.12442017 C-84.87863098 79.81442017 -82.23863098 77.50442017 -79.51863098 75.12442017 C-77.63256769 73.52946132 -75.73799507 71.94445132 -73.83113098 70.37442017 C-72.94038879 69.63707642 -72.04964661 68.89973267 -71.13191223 68.14004517 C-66.41128961 64.49902682 -61.59617875 62.22632622 -56.01863098 60.18692017 C-55.31375549 59.92749634 -54.60888 59.66807251 -53.88264465 59.40078735 C-40.52598696 54.53834334 -27.93341214 50.98275678 -13.60456848 51.07754517 C-12.91902893 51.08092896 -12.23348938 51.08431274 -11.5271759 51.08779907 C-9.85763914 51.09653248 -8.18812813 51.10997954 -6.51863098 51.12442017 C-6.52085159 50.50023697 -6.5230722 49.87605377 -6.52536011 49.23295593 C-6.54741178 42.76099213 -6.56253708 36.28903892 -6.57356262 29.81704712 C-6.57860447 27.39874844 -6.58543776 24.98045283 -6.59407043 22.56216431 C-6.60614255 19.09462733 -6.61186061 15.6271305 -6.61628723 12.15957642 C-6.62144852 11.07104874 -6.6266098 9.98252106 -6.63192749 8.86100769 C-6.63200302 7.86004562 -6.63207855 6.85908356 -6.63215637 5.82778931 C-6.63437698 4.94176529 -6.6365976 4.05574127 -6.6388855 3.14286804 C-6.3884642 -1.06040305 -3.54262076 0.00679607 0 0 Z "
          fill="#FCFCFC" transform="translate(638.5186309814453,5.875579833984375)"/>
    <path d="M0 0 C8.14712658 6.51984243 17.35096424 14.28692172 19.63461304 24.96829224 C19.85199291 28.11514138 19.86770661 31.1905153 19.7890625 34.34375 C19.78627289 35.47526489 19.78348328 36.60677979 19.78060913 37.77258301 C19.76793446 40.14248055 19.73847558 42.51234332 19.69287109 44.88183594 C19.6246566 48.51830644 19.61085335 52.15200697 19.60546875 55.7890625 C19.58648543 58.09898639 19.56445948 60.40888772 19.5390625 62.71875 C19.53258698 63.80619507 19.52611145 64.89364014 19.5194397 66.01403809 C19.49707245 67.01938599 19.4747052 68.02473389 19.45166016 69.06054688 C19.43720856 69.9444812 19.42275696 70.82841553 19.40786743 71.73913574 C18.91861358 74.45113593 18.0311336 75.21926444 16 77 C15.28552357 79.10332891 15.28552357 79.10332891 15 81 C14.34 81 13.68 81 13 81 C12.62875 82.051875 12.62875 82.051875 12.25 83.125 C7.95124709 93.01213169 -1.13022642 99.90489318 -11 104 C-12.32 104 -13.64 104 -15 104 C-15 104.66 -15 105.32 -15 106 C-19.7409351 107.5803117 -24.53386908 107.26762532 -29.5 107.3125 C-31.05847656 107.35600586 -31.05847656 107.35600586 -32.6484375 107.40039062 C-45.1396885 107.50162894 -54.68161498 103.21561756 -64 95 C-75.40933491 83.30720336 -80.01577941 70.41903051 -80.6875 54.375 C-80.72439941 53.50689697 -80.76129883 52.63879395 -80.79931641 51.74438477 C-81.24287382 39.37823163 -80.91054424 29.15822371 -75 18 C-74.70351563 17.17628906 -74.40703125 16.35257813 -74.1015625 15.50390625 C-71.91379337 10.5309984 -67.73405955 6.86453418 -64 3 C-63.44183594 2.40445313 -62.88367188 1.80890625 -62.30859375 1.1953125 C-46.49875846 -14.09941538 -16.87553779 -12.09460972 0 0 Z "
          fill="#000000" transform="translate(368,134)"/>
    <path d="M0 0 C70.95 0 141.9 0 215 0 C215.33 0.99 215.66 1.98 216 3 C144.39 3 72.78 3 -1 3 C-0.67 2.01 -0.34 1.02 0 0 Z "
          fill="#151515" transform="translate(3,58)"/>
    <path d="M0 0 C27.06 0 54.12 0 82 0 C82 8.91 82 17.82 82 27 C82.66 27.33 83.32 27.66 84 28 C82.68 28 81.36 28 80 28 C80 19.42 80 10.84 80 2 C54.26 2 28.52 2 2 2 C2 24.44 2 46.88 2 70 C3.98 69.01 3.98 69.01 6 68 C6.99 68.33 7.98 68.66 9 69 C5.53785351 71.05164237 4.40610765 71 0 71 C0 47.57 0 24.14 0 0 Z "
          fill="#BCBCBA" transform="translate(469,61)"/>
    <path d="M0 0 C0.66 0.33 1.32 0.66 2 1 C2 21.46 2 41.92 2 63 C1.01 63.495 1.01 63.495 0 64 C-1.34838383 61.30323233 -1.12716247 59.20852221 -1.12939453 56.18920898 C-1.13254669 54.97132187 -1.13569885 53.75343475 -1.13894653 52.49864197 C-1.13715689 51.16445886 -1.13510597 49.83027608 -1.1328125 48.49609375 C-1.13348581 47.13371259 -1.13445606 45.77133155 -1.13571167 44.40895081 C-1.13718686 41.55330258 -1.13503948 38.69768561 -1.13037109 35.84204102 C-1.12466849 32.17425015 -1.12795727 28.50653236 -1.13394356 24.83874416 C-1.13754938 22.025858 -1.13641059 19.21298929 -1.13381577 16.40010262 C-1.13314683 15.04725193 -1.13397375 13.69439968 -1.13629532 12.34155083 C-1.13882273 10.454833 -1.13429043 8.56810965 -1.12939453 6.68139648 C-1.12859894 5.60599106 -1.12780334 4.53058563 -1.12698364 3.42259216 C-1 1 -1 1 0 0 Z "
          fill="#262725" transform="translate(775,70)"/>
    <path d="M0 0 C3.91997184 3.74953828 3.91997184 3.74953828 4.14044189 7.19444275 C4.1472699 8.10472733 4.1540979 9.0150119 4.16113281 9.95288086 C4.17074036 10.98412582 4.1803479 12.01537079 4.19024658 13.0778656 C4.19449646 14.19556839 4.19874634 15.31327118 4.203125 16.46484375 C4.20882507 17.60909317 4.21452515 18.75334259 4.22039795 19.93226624 C4.22985619 22.35579501 4.23638519 24.77933669 4.24023438 27.20288086 C4.2499508 30.91868372 4.28097158 34.63393617 4.3125 38.34960938 C4.31902872 40.70051754 4.3242797 43.05142967 4.328125 45.40234375 C4.3404718 46.51802231 4.3528186 47.63370087 4.36553955 48.78318787 C4.36253845 49.81758499 4.35953735 50.85198212 4.35644531 51.91772461 C4.36009094 52.82880478 4.36373657 53.73988495 4.36749268 54.67857361 C3.92643538 57.46470274 3.10723561 58.20894918 1 60 C-0.17574711 62.09989652 -0.17574711 62.09989652 -1 64 C-1.86599658 61.05561163 -2.19008982 59.47671638 -1.03564453 56.58154297 C0.48246599 51.33150022 0.24504913 46.25693915 0.1953125 40.8203125 C0.1924826 39.6524118 0.18965271 38.48451111 0.18673706 37.28121948 C0.17556973 33.56237409 0.15047104 29.84377223 0.125 26.125 C0.11496576 23.59896182 0.10584069 21.07291985 0.09765625 18.546875 C0.07564165 12.36450067 0.04219815 6.18226774 0 0 Z "
          fill="#343535" transform="translate(383,151)"/>
    <path d="M0 0 C0.66 0 1.32 0 2 0 C1.93019456 0.57771086 1.86038912 1.15542171 1.78846836 1.75063896 C1.01882232 8.65510893 0.83054333 15.48312321 0.79467773 22.42626953 C0.78477814 23.62741898 0.77487854 24.82856842 0.76467896 26.06611633 C0.7386878 29.32780463 0.71674618 32.58948864 0.69667697 35.85121775 C0.67464859 39.27183937 0.64734321 42.692419 0.62062073 46.11300659 C0.57091969 52.57606449 0.52589812 59.03914599 0.48259836 65.5022496 C0.43303157 72.86633528 0.37818622 80.23037877 0.32291877 87.59442353 C0.209446 102.72957628 0.10253288 117.86476888 0 133 C-0.33 133 -0.66 133 -1 133 C-1.17741471 116.54498895 -1.34307196 100.08990792 -1.49477577 83.63464165 C-1.56548962 75.99399043 -1.64003429 68.35341263 -1.72363281 60.71289062 C-1.79649685 54.05255946 -1.86213707 47.39220274 -1.91914403 40.73171628 C-1.94957333 37.20581735 -1.98359167 33.68003631 -2.02626419 30.15426254 C-2.07379324 26.21603142 -2.10519268 22.27776056 -2.13525391 18.33935547 C-2.1517952 17.17338333 -2.16833649 16.00741119 -2.18537903 14.80610657 C-2.21339672 9.48013051 -2.208567 4.96439857 0 0 Z "
          fill="#111110" transform="translate(558,171)"/>
    <path d="M0 0 C0.33 0 0.66 0 1 0 C1.88126957 5.94856962 2.01744139 11.69189562 1.9375 17.6875 C1.85300156 25.62625159 2.67597069 33.16533035 4 41 C4.46108456 44.02454553 4.79612462 46.94186932 5 50 C4.34 50.66 3.68 51.32 3 52 C2.51555236 50.00127261 2.0377234 48.00094063 1.5625 46 C1.29566406 44.88625 1.02882812 43.7725 0.75390625 42.625 C-0.90154682 34.6651013 -1.15497165 27.04483048 -1.125 18.9375 C-1.12886719 17.88755859 -1.13273438 16.83761719 -1.13671875 15.75585938 C-1.12997291 10.39628878 -0.94345556 5.27885852 0 0 Z "
          fill="#0D0D0D" transform="translate(199,164)"/>
    <path d="M0 0 C13.3272344 -0.57458735 23.93021028 0.75947169 36 7 C35.67 7.66 35.34 8.32 35 9 C34.071875 8.5978125 34.071875 8.5978125 33.125 8.1875 C25.04029274 5.11531124 17.40030889 3.5069446 8.80175781 2.734375 C5.13467167 2.37987328 3.12494388 2.08329592 0 0 Z "
          fill="#131312" transform="translate(329,125)"/>
    <path d="M0 0 C0.33 0.99 0.66 1.98 1 3 C-1.00366661 6.04557325 -3.30151387 8.30787348 -6.125 10.5625 C-8.67675529 12.7259447 -9.86489475 13.93521583 -11 17 C-11.66 17 -12.32 17 -13 17 C-13.061875 17.556875 -13.12375 18.11375 -13.1875 18.6875 C-14.33373872 21.94987173 -16.49390197 23.68667874 -19 26 C-19.99 25.67 -20.98 25.34 -22 25 C-21.45472656 24.40574219 -20.90945312 23.81148437 -20.34765625 23.19921875 C-15.39280613 17.75311853 -10.64356963 12.1939686 -6.04296875 6.4453125 C-4.13421464 4.16064697 -2.13961197 2.06749022 0 0 Z "
          fill="#262625" transform="translate(131,212)"/>
    <path d="M0 0 C3.66876116 4.5140406 5.28234867 9.52294518 7.25 14.9375 C7.62640625 15.92685547 8.0028125 16.91621094 8.390625 17.93554688 C8.74125 18.89396484 9.091875 19.85238281 9.453125 20.83984375 C9.77442383 21.70988037 10.09572266 22.57991699 10.42675781 23.47631836 C11.07532093 26.33159816 10.76724782 28.20004776 10 31 C7.20568066 25.69292873 5.3532823 20.00213387 3.3125 14.375 C2.88388672 13.21742188 2.45527344 12.05984375 2.01367188 10.8671875 C1.61341797 9.76375 1.21316406 8.6603125 0.80078125 7.5234375 C0.43122314 6.51200684 0.06166504 5.50057617 -0.3190918 4.45849609 C-1 2 -1 2 0 0 Z "
          fill="#101010" transform="translate(772,237)"/>
    <path d="M0 0 C0.33 0 0.66 0 1 0 C1 18.15 1 36.3 1 55 C-1.97 55.495 -1.97 55.495 -5 56 C-4.02885254 55.12275269 -4.02885254 55.12275269 -3.03808594 54.2277832 C0.00298156 49.41154538 -0.39692673 44.9448739 -0.390625 39.35546875 C-0.37408875 38.2305452 -0.35755249 37.10562164 -0.34051514 35.9466095 C-0.29200217 32.3601843 -0.27065591 28.77418326 -0.25 25.1875 C-0.22184323 22.75323383 -0.19191622 20.31898745 -0.16015625 17.88476562 C-0.08624218 11.92325417 -0.0346189 5.96186216 0 0 Z "
          fill="#363735" transform="translate(219,61)"/>
    <path d="M0 0 C15.72265625 6.73828125 15.72265625 6.73828125 18.45751953 7.91650391 C20.03589222 8.58913863 21.61941332 9.24998192 23.21044922 9.89208984 C27.89776235 11.79552469 27.89776235 11.79552469 29 14 C22.43800173 12.72824409 16.65477522 10.85409581 10.5625 8.125 C9.36077148 7.61646484 9.36077148 7.61646484 8.13476562 7.09765625 C7.36970703 6.75863281 6.60464844 6.41960937 5.81640625 6.0703125 C5.13006104 5.76883301 4.44371582 5.46735352 3.73657227 5.15673828 C1.60005893 3.73359753 0.95539925 2.34699233 0 0 Z "
          fill="#0B0B0A" transform="translate(264,291)"/>
    <path d="M0 0 C1.485 0.99 1.485 0.99 3 2 C3.34057617 4.10717773 3.34057617 4.10717773 3.29296875 6.68359375 C3.28330078 7.61107422 3.27363281 8.53855469 3.26367188 9.49414062 C3.23853516 10.46544922 3.21339844 11.43675781 3.1875 12.4375 C3.17396484 13.40494141 3.16042969 14.37238281 3.14648438 15.36914062 C3.12027872 17.16734743 3.08793231 18.96548214 3.04760742 20.76342773 C3.01045927 22.50862864 3 24.25440378 3 26 C2.01 26.33 1.02 26.66 0 27 C0 18.09 0 9.18 0 0 Z "
          fill="#1A1A19" transform="translate(551,61)"/>
    <path d="M0 0 C1.65 0 3.3 0 5 0 C5.226875 0.639375 5.45375 1.27875 5.6875 1.9375 C6.81636577 4.21930049 6.81636577 4.21930049 9.25 4.625 C10.1575 4.74875 11.065 4.8725 12 5 C13.37599365 5.50055908 13.37599365 5.50055908 14.77978516 6.01123047 C18.14249488 7.04375317 20.76805596 7.23001925 24.2734375 7.1953125 C25.42714844 7.18886719 26.58085937 7.18242187 27.76953125 7.17578125 C29.55423828 7.15064453 29.55423828 7.15064453 31.375 7.125 C33.19451172 7.11146484 33.19451172 7.11146484 35.05078125 7.09765625 C38.03405773 7.07416588 41.01692594 7.04131682 44 7 C39.42405436 10.05063043 34.88511017 9.36851192 29.5 9.375 C28.46101563 9.39949219 27.42203125 9.42398438 26.3515625 9.44921875 C16.5506659 9.48588046 7.78547227 7.10212692 0 1 C0 0.67 0 0.34 0 0 Z "
          fill="#858481" transform="translate(309,232)"/>
    <path d="M0 0 C0.33 0 0.66 0 1 0 C1.14287256 6.49616516 1.28523716 12.9923413 1.42724609 19.48852539 C1.47563119 21.69913994 1.52413323 23.90975194 1.57275391 26.12036133 C1.64255921 29.29507801 1.71194605 32.46980359 1.78125 35.64453125 C1.81406067 37.13059624 1.81406067 37.13059624 1.84753418 38.64668274 C1.87756531 40.02777473 1.87756531 40.02777473 1.90820312 41.43676758 C1.92596802 42.2472908 1.94373291 43.05781403 1.96203613 43.89289856 C1.99270373 45.59503649 2 47.29758582 2 49 C1.01 49.99 0.02 50.98 -1 52 C-0.67 34.84 -0.34 17.68 0 0 Z "
          fill="#0F100F" transform="translate(221,62)"/>
    <path d="M0 0 C2.40073207 3.60109811 2.74328494 6.81214902 3.25 11 C3.353125 11.72445312 3.45625 12.44890625 3.5625 13.1953125 C4.24471079 18.63293381 4.24471079 18.63293381 2 22 C1.01 22 0.02 22 -1 22 C-1 21.34 -1 20.68 -1 20 C-0.34 20 0.32 20 1 20 C0.84402344 18.80761719 0.68804687 17.61523438 0.52734375 16.38671875 C0.33037609 14.82035686 0.13378089 13.2539481 -0.0625 11.6875 C-0.16626953 10.90181641 -0.27003906 10.11613281 -0.37695312 9.30664062 C-0.47041016 8.54931641 -0.56386719 7.79199219 -0.66015625 7.01171875 C-0.74918213 6.31522217 -0.83820801 5.61872559 -0.92993164 4.90112305 C-1 3 -1 3 0 0 Z "
          fill="#141414" transform="translate(453,235)"/>
    <path d="M0 0 C2.05153209 3.32280936 2.10559177 5.19655735 1.3203125 8.984375 C1.13339844 9.91894531 0.94648438 10.85351562 0.75390625 11.81640625 C0.44259766 13.26853516 0.44259766 13.26853516 0.125 14.75 C-0.07480469 15.73355469 -0.27460938 16.71710938 -0.48046875 17.73046875 C-0.97506936 20.156367 -1.48194361 22.57902166 -2 25 C-2.66 25 -3.32 25 -4 25 C-4.33 26.32 -4.66 27.64 -5 29 C-4.35299955 19.13324315 -2.12620288 9.6321935 0 0 Z "
          fill="#0E0E0E" transform="translate(506,119)"/>
    <path d="M0 0 C0.66 0.33 1.32 0.66 2 1 C-13.48837209 18.49612403 -13.48837209 18.49612403 -18 20 C-16.5735422 16.7413364 -14.83295838 14.5975146 -12.3046875 12.109375 C-11.23154297 11.04589844 -11.23154297 11.04589844 -10.13671875 9.9609375 C-9.39035156 9.23132813 -8.64398438 8.50171875 -7.875 7.75 C-7.12089844 7.00492187 -6.36679688 6.25984375 -5.58984375 5.4921875 C-3.73099228 3.6568658 -1.86762995 1.8263809 0 0 Z "
          fill="#CECFCE" transform="translate(244,87)"/>
    <path d="M0 0 C0.66 0.33 1.32 0.66 2 1 C0.80949919 4.57150242 -0.0845082 4.97798926 -3.1875 6.9375 C-4.39792969 7.71287109 -4.39792969 7.71287109 -5.6328125 8.50390625 C-6.41398438 8.99761719 -7.19515625 9.49132812 -8 10 C-9.19008802 10.78777082 -10.37806038 11.57876188 -11.5625 12.375 C-12.366875 12.91125 -13.17125 13.4475 -14 14 C-14 11 -14 11 -12.20703125 9.0625 C-11.41683594 8.381875 -10.62664063 7.70125 -9.8125 7 C-9.03519531 6.319375 -8.25789062 5.63875 -7.45703125 4.9375 C-5.04794014 3.03780336 -2.73318191 1.39644925 0 0 Z "
          fill="#363736" transform="translate(581,139)"/>
    <path d="M0 0 C0.66 0.33 1.32 0.66 2 1 C-3.22354205 6.37278611 -8.39208076 10.5090238 -15 14 C-15.66 14 -16.32 14 -17 14 C-17 13.34 -17 12.68 -17 12 C-15.33861059 10.82638506 -13.61820517 9.73574737 -11.875 8.6875 C-7.59224996 6.0460103 -3.75029626 3.34485883 0 0 Z "
          fill="#1E1E1D" transform="translate(374,223)"/>
    <path d="M0 0 C-1.48357222 4.10835383 -2.93321834 7.96660917 -7 10 C-7 9.34 -7 8.68 -7 8 C-9.475 9.485 -9.475 9.485 -12 11 C-10.5611898 7.612801 -8.77880501 5.6405896 -6 3.25 C-5.29875 2.63640625 -4.5975 2.0228125 -3.875 1.390625 C-2 0 -2 0 0 0 Z "
          fill="#181918" transform="translate(219,115)"/>
    <path d="M0 0 C-3.68713736 2.26169766 -7.539556 2.63948566 -11.75 3.125 C-12.44738281 3.21136719 -13.14476562 3.29773437 -13.86328125 3.38671875 C-15.57472332 3.59771846 -17.28726629 3.79975501 -19 4 C-19.33 3.34 -19.66 2.68 -20 2 C-12.95015484 -0.65494169 -7.42893413 -1.31191816 0 0 Z "
          fill="#1B1A18" transform="translate(315,58)"/>
    <path d="M0 0 C-0.66 0.66 -1.32 1.32 -2 2 C-4.4103917 1.79486028 -6.63160166 1.45449898 -9 1 C-9.9590625 0.82855469 -10.918125 0.65710937 -11.90625 0.48046875 C-14.60609952 -0.00313832 -17.3035626 -0.49777025 -20 -1 C-20 -1.33 -20 -1.66 -20 -2 C-12.84824727 -3.60914436 -6.80445506 -2.55167065 0 0 Z "
          fill="#2C2B2A" transform="translate(385,61)"/>
    <path d="M0 0 C0 2.31 0 4.62 0 7 C-0.33 7 -0.66 7 -1 7 C-1 5.02 -1 3.04 -1 1 C-5.29 2.65 -9.58 4.3 -14 6 C-14.66 5.34 -15.32 4.68 -16 4 C-14.27921959 3.1290621 -12.54793677 2.27885442 -10.8125 1.4375 C-9.84957031 0.96183594 -8.88664062 0.48617187 -7.89453125 -0.00390625 C-4.72281223 -1.0953885 -3.16301775 -0.96567452 0 0 Z "
          fill="#252423" transform="translate(446,196)"/>
    <path d="M0 0 C-1.45746236 3.34314819 -3.30984087 5.6078211 -5.875 8.1875 C-6.55304687 8.88230469 -7.23109375 9.57710937 -7.9296875 10.29296875 C-10.03086032 12.0254452 -11.34102145 12.60055703 -14 13 C-14 12.34 -14 11.68 -14 11 C-13.01 11 -12.02 11 -11 11 C-10.7421875 10.41734375 -10.484375 9.8346875 -10.21875 9.234375 C-8.90165983 6.8197097 -7.44911616 5.18259823 -5.5 3.25 C-4.8915625 2.63640625 -4.283125 2.0228125 -3.65625 1.390625 C-2 0 -2 0 0 0 Z "
          fill="#D5D6D5" transform="translate(564,78)"/>
    <path d="M0 0 C-4.2954975 3.74123976 -8.99900452 6.34151874 -14 9 C-14 8.01 -14 7.02 -14 6 C-11.69921875 4.140625 -11.69921875 4.140625 -8.6875 2.25 C-7.70136719 1.61578125 -6.71523438 0.9815625 -5.69921875 0.328125 C-3 -1 -3 -1 0 0 Z "
          fill="#151413" transform="translate(264,74)"/>
    <path d="M0 0 C0.66 0 1.32 0 2 0 C3.03041513 1.95330868 4.0490893 3.91281528 5.0625 5.875 C5.63097656 6.96554687 6.19945312 8.05609375 6.78515625 9.1796875 C7.18605469 10.11039062 7.58695313 11.04109375 8 12 C7.67 12.66 7.34 13.32 7 14 C6.34 14 5.68 14 5 14 C4.71125 13.030625 4.4225 12.06125 4.125 11.0625 C3.35785318 7.89335797 3.35785318 7.89335797 1 7 C0.59270772 4.67843403 0.25561323 2.3431213 0 0 Z "
          fill="#252526" transform="translate(638,257)"/>
    <path d="M0 0 C0.33 0 0.66 0 1 0 C2.57300962 5.73303505 3.24327778 10.15659442 2 16 C-0.16066331 12.75900504 -0.37886905 11.23720241 -0.6875 7.4375 C-0.77386719 6.46683594 -0.86023438 5.49617187 -0.94921875 4.49609375 C-1 2 -1 2 0 0 Z "
          fill="#1F1F1F" transform="translate(201,200)"/>
    <path d="M0 0 C0.33 0.99 0.66 1.98 1 3 C-1.89176786 7.45814212 -5.92437541 10.66852035 -10 14 C-10.66 13.67 -11.32 13.34 -12 13 C-8.04 8.71 -4.08 4.42 0 0 Z "
          fill="#2D2D2C" transform="translate(131,212)"/>
    <path d="M0 0 C0.66 0.33 1.32 0.66 2 1 C1.85904936 2.6254308 1.71207913 4.25034051 1.5625 5.875 C1.48128906 6.77992188 1.40007812 7.68484375 1.31640625 8.6171875 C1 11 1 11 0 13 C-0.99 12.67 -1.98 12.34 -3 12 C-2.01 8.04 -1.02 4.08 0 0 Z "
          fill="#222323" transform="translate(203,146)"/>
    <path d="M0 0 C3 0 3 0 5.4375 2.25 C6.283125 3.1575 7.12875 4.065 8 5 C9.1446875 6.1446875 9.1446875 6.1446875 10.3125 7.3125 C10.869375 7.869375 11.42625 8.42625 12 9 C11.01 9.33 10.02 9.66 9 10 C7.24609375 8.92578125 7.24609375 8.92578125 5.4375 7.3125 C4.83808594 6.79300781 4.23867188 6.27351562 3.62109375 5.73828125 C1.93577517 3.93113241 0.98665088 2.25309828 0 0 Z "
          fill="#212120" transform="translate(299,222)"/>
    <path d="M0 0 C0.66 0.33 1.32 0.66 2 1 C1.34 5.62 0.68 10.24 0 15 C-2 13 -2 13 -2.01171875 10.46875 C-1.90472656 9.4890625 -1.79773438 8.509375 -1.6875 7.5 C-1.58824219 6.5203125 -1.48898437 5.540625 -1.38671875 4.53125 C-1 2 -1 2 0 0 Z "
          fill="#141414" transform="translate(474,291)"/>
    <path d="M0 0 C0.33 0.99 0.66 1.98 1 3 C-0.1446875 4.0828125 -0.1446875 4.0828125 -1.3125 5.1875 C-3.71133591 7.69790967 -5.35410221 9.96808302 -7 13 C-7.99 12.67 -8.98 12.34 -10 12 C-8.52149287 10.18696196 -7.04217625 8.37458402 -5.5625 6.5625 C-4.32693359 5.04849609 -4.32693359 5.04849609 -3.06640625 3.50390625 C-1 1 -1 1 0 0 Z "
          fill="#2A2A29" transform="translate(142,199)"/>
    <path d="M0 0 C0.66 0.33 1.32 0.66 2 1 C1.48041715 5.37934119 0.94324258 9.68803391 0 14 C-0.66 13.67 -1.32 13.34 -2 13 C-1.85915204 11.20793453 -1.71216299 9.41635083 -1.5625 7.625 C-1.48128906 6.62726563 -1.40007812 5.62953125 -1.31640625 4.6015625 C-1 2 -1 2 0 0 Z "
          fill="#131414" transform="translate(490,205)"/>
    <path d="M0 0 C2 1.5625 2 1.5625 4 4 C4.375 7.625 4.375 7.625 4 11 C3.34 11.66 2.68 12.32 2 13 C1.66127487 11.58461283 1.32925376 10.16762037 1 8.75 C0.814375 7.96109375 0.62875 7.1721875 0.4375 6.359375 C0 4 0 4 0 0 Z "
          fill="#353534" transform="translate(449,223)"/>
    <path d="M0 0 C0.66 0 1.32 0 2 0 C2 0.66 2 1.32 2 2 C1.34 2 0.68 2 0 2 C-0.061875 2.5775 -0.12375 3.155 -0.1875 3.75 C-1.32027301 6.88690987 -3.34197595 8.09167504 -6 10 C-6.66 9.67 -7.32 9.34 -8 9 C-6.71520959 7.49410612 -5.42195918 5.99542625 -4.125 4.5 C-3.04605469 3.24703125 -3.04605469 3.24703125 -1.9453125 1.96875 C-1.30335938 1.3190625 -0.66140625 0.669375 0 0 Z "
          fill="#262726" transform="translate(205,127)"/>
    <path d="M0 0 C6.93 2.97 6.93 2.97 14 6 C13.67 6.66 13.34 7.32 13 8 C2.98165138 4.98165138 2.98165138 4.98165138 0 2 C0 1.34 0 0.68 0 0 Z "
          fill="#141414" transform="translate(264,291)"/>
    <path d="M0 0 C-5.26850908 3.51233939 -9.71157812 4.25153688 -16 4 C-14.67741528 3.31225595 -13.34013497 2.65288627 -12 2 C-10.865625 1.443125 -9.73125 0.88625 -8.5625 0.3125 C-4.97095485 -1.01070084 -3.55092442 -1.18364147 0 0 Z "
          fill="#1C1C1C" transform="translate(329,127)"/>
    <path d="M0 0 C0.66 0.33 1.32 0.66 2 1 C-0.64 4.3 -3.28 7.6 -6 11 C-6.66 10.34 -7.32 9.68 -8 9 C-5.36 6.03 -2.72 3.06 0 0 Z "
          fill="#1E1E1E" transform="translate(18,229)"/>
    <path d="M0 0 C0.66 0 1.32 0 2 0 C0.63629701 2.99220268 -0.94908083 5.29026529 -3.125 7.75 C-3.93324219 8.67039063 -3.93324219 8.67039063 -4.7578125 9.609375 C-5.16773437 10.06828125 -5.57765625 10.5271875 -6 11 C-6.66 10.34 -7.32 9.68 -8 9 C-6.71520959 7.49410612 -5.42195918 5.99542625 -4.125 4.5 C-3.04605469 3.24703125 -3.04605469 3.24703125 -1.9453125 1.96875 C-1.30335937 1.3190625 -0.66140625 0.669375 0 0 Z "
          fill="#232323" transform="translate(105,129)"/>
    <path d="M0 0 C-3.68734758 2.45823172 -6.69699971 3.01242616 -11 4 C-10.1875 2.0625 -10.1875 2.0625 -9 0 C-5.52176885 -1.15941038 -3.54104422 -0.70820884 0 0 Z "
          fill="#2B2A28" transform="translate(600,60)"/>
    <path d="M0 0 C-1 3 -1 3 -2.9609375 4.01953125 C-3.75757813 4.28121094 -4.55421875 4.54289063 -5.375 4.8125 C-6.16648437 5.08707031 -6.95796875 5.36164063 -7.7734375 5.64453125 C-10 6 -10 6 -13 4 C-12.37351562 3.79503906 -11.74703125 3.59007812 -11.1015625 3.37890625 C-10.28429687 3.10949219 -9.46703125 2.84007812 -8.625 2.5625 C-7.81289063 2.29566406 -7.00078125 2.02882812 -6.1640625 1.75390625 C-1.12953368 0 -1.12953368 0 0 0 Z "
          fill="#131313" transform="translate(482,128)"/>
    <path d="M0 0 C4.17451972 0.37106842 6.94298088 1.06055854 10 4 C10 4.66 10 5.32 10 6 C8.53932801 5.54917531 7.08151968 5.08906463 5.625 4.625 C4.81289063 4.36976562 4.00078125 4.11453125 3.1640625 3.8515625 C1 3 1 3 -1 1 C-0.67 0.67 -0.34 0.34 0 0 Z "
          fill="#343432" transform="translate(389,63)"/>
    <path d="M0 0 C2.36574234 3.5486135 2.10865265 4.5764525 1.625 8.6875 C1.51414062 9.68136719 1.40328125 10.67523438 1.2890625 11.69921875 C1.19367188 12.45847656 1.09828125 13.21773437 1 14 C0.67 14 0.34 14 0 14 C-0.19532961 12.2300132 -0.38098882 10.45895721 -0.5625 8.6875 C-0.66691406 7.70136719 -0.77132813 6.71523437 -0.87890625 5.69921875 C-1 3 -1 3 0 0 Z "
          fill="#1C1C1B" transform="translate(453,235)"/>
    <path d="M0 0 C0.66 0.33 1.32 0.66 2 1 C0.02 3.31 -1.96 5.62 -4 8 C-5.32 7.34 -6.64 6.68 -8 6 C-5.36 4.02 -2.72 2.04 0 0 Z "
          fill="#2B2C2B" transform="translate(429,279)"/>
    <path d="M0 0 C0.33 1.32 0.66 2.64 1 4 C-1.97 6.475 -1.97 6.475 -5 9 C-5.66 8.67 -6.32 8.34 -7 8 C-4.69 5.36 -2.38 2.72 0 0 Z "
          fill="#313130" transform="translate(182,153)"/>
    <path d="M0 0 C3 3 3 3 3.07421875 5.69921875 C2.94660156 6.68535156 2.81898438 7.67148438 2.6875 8.6875 C2.50767578 10.17830078 2.50767578 10.17830078 2.32421875 11.69921875 C2.21722656 12.45847656 2.11023438 13.21773437 2 14 C1.67 14 1.34 14 1 14 C0.67 9.38 0.34 4.76 0 0 Z "
          fill="#2C2C2C" transform="translate(383,151)"/>
    <path d="M0 0 C0.66 0.66 1.32 1.32 2 2 C-2.43076923 5.07692308 -2.43076923 5.07692308 -5.3125 4.6875 C-5.869375 4.460625 -6.42625 4.23375 -7 4 C-4.61426621 2.10786631 -2.92824652 0.97608217 0 0 Z "
          fill="#1D1D1D" transform="translate(405,294)"/>
    <path d="M0 0 C0.66 0 1.32 0 2 0 C1.67 3.3 1.34 6.6 1 10 C-1 8 -1 8 -1.1875 5 C-1 2 -1 2 0 0 Z " fill="#0B0B0A"
          transform="translate(558,171)"/>
    <path d="M0 0 C1.17539996 0.92652701 2.34010577 1.86663387 3.5 2.8125 C4.1496875 3.33457031 4.799375 3.85664063 5.46875 4.39453125 C7 6 7 6 7 9 C5.82460004 8.07347299 4.65989423 7.13336613 3.5 6.1875 C2.52546875 5.40439453 2.52546875 5.40439453 1.53125 4.60546875 C0 3 0 3 0 0 Z "
          fill="#30302F" transform="translate(373,139)"/>
    <path d="M0 0 C0 0.66 0 1.32 0 2 C-2.8125 2.625 -2.8125 2.625 -6 3 C-6.99 2.34 -7.98 1.68 -9 1 C-6.04335481 -0.4783226 -3.25770263 -0.06032783 0 0 Z "
          fill="#2B2B2B" transform="translate(392,301)"/>
    <path d="M0 0 C3 1 3 1 4.1875 3.375 C5 6 5 6 5 9 C4.34 9 3.68 9 3 9 C2.01 6.03 1.02 3.06 0 0 Z " fill="#141313"
          transform="translate(787,284)"/>
    <path d="M0 0 C1.65 0 3.3 0 5 0 C5.268125 0.639375 5.53625 1.27875 5.8125 1.9375 C6.88667752 4.33131686 6.88667752 4.33131686 10 5 C6.05140217 4.4359146 3.29120954 3.2568294 0 1 C0 0.67 0 0.34 0 0 Z "
          fill="#484845" transform="translate(309,232)"/>
    <path d="M0 0 C1.73662334 3.22515763 2.8905928 6.51329166 4 10 C2.0625 9.375 2.0625 9.375 0 8 C-1.40540541 2.81081081 -1.40540541 2.81081081 0 0 Z "
          fill="#393A39" transform="translate(204,215)"/>
    <path d="M0 0 C0.66 0.33 1.32 0.66 2 1 C1.01 3.97 0.02 6.94 -1 10 C-3 7 -3 7 -2.625 4.3125 C-2.41875 3.549375 -2.2125 2.78625 -2 2 C-1.34 2 -0.68 2 0 2 C0 1.34 0 0.68 0 0 Z "
          fill="#1B1B1C" transform="translate(384,205)"/>
    <path d="M0 0 C-1.28519565 2.86697492 -2.57129254 4.97607712 -5 7 C-5.66 7 -6.32 7 -7 7 C-3.86206897 0 -3.86206897 0 0 0 Z "
          fill="#171717" transform="translate(51,193)"/>
    <path d="M0 0 C0.66 0 1.32 0 2 0 C1.67 4.29 1.34 8.58 1 13 C0.67 13 0.34 13 0 13 C-0.19658808 11.58456585 -0.38187546 10.16755969 -0.5625 8.75 C-0.66691406 7.96109375 -0.77132812 7.1721875 -0.87890625 6.359375 C-1.00027349 3.99467126 -0.69633257 2.2488963 0 0 Z "
          fill="#090A0A" transform="translate(200,159)"/>
    <path d="M0 0 C0.33 0 0.66 0 1 0 C1 2.97 1 5.94 1 9 C-0.98 9.33 -2.96 9.66 -5 10 C-4.360625 9.278125 -3.72125 8.55625 -3.0625 7.8125 C-1.01326465 5.01808816 -0.38667054 3.38336726 0 0 Z "
          fill="#2A2A2A" transform="translate(219,107)"/>
    <path d="M0 0 C3.63 0.33 7.26 0.66 11 1 C11 1.33 11 1.66 11 2 C7.37 2.33 3.74 2.66 0 3 C0 2.01 0 1.02 0 0 Z "
          fill="#262522" transform="translate(601,57)"/>
    <path d="M0 0 C-2.85306797 2.32472205 -5.54074837 3.7508258 -9 5 C-8 2 -8 2 -5.625 0.25 C-3 -1 -3 -1 0 0 Z "
          fill="#141414" transform="translate(791,297)"/>
    <path d="M0 0 C0.66 0.33 1.32 0.66 2 1 C0.35 2.65 -1.3 4.3 -3 6 C-3.99 5.67 -4.98 5.34 -6 5 C-4.02 3.35 -2.04 1.7 0 0 Z "
          fill="#171717" transform="translate(374,223)"/>
    <path d="M0 0 C3.465 1.485 3.465 1.485 7 3 C6.67 3.66 6.34 4.32 6 5 C4.02 4.34 2.04 3.68 0 3 C0 2.01 0 1.02 0 0 Z "
          fill="#151514" transform="translate(672,296)"/>
    <path d="M0 0 C1.98 1.65 3.96 3.3 6 5 C5.34 5.66 4.68 6.32 4 7 C2.35 5.02 0.7 3.04 -1 1 C-0.67 0.67 -0.34 0.34 0 0 Z "
          fill="#131313" transform="translate(230,265)"/>
    <path d="M0 0 C0.99 0 1.98 0 3 0 C3.66 1.98 4.32 3.96 5 6 C4.01 6 3.02 6 2 6 C1.34 4.02 0.68 2.04 0 0 Z "
          fill="#2F2E2E" transform="translate(641,265)"/>
    <path d="M0 0 C0.66 0.66 1.32 1.32 2 2 C-0.97 4.475 -0.97 4.475 -4 7 C-4 4 -4 4 -2 1.8125 C-1.34 1.214375 -0.68 0.61625 0 0 Z "
          fill="#242424" transform="translate(236,92)"/>
</svg>
